<?xml version="1.0" standalone="no"?>
<!DOCTYPE svg PUBLIC "-//W3C//DTD SVG 20010904//EN"
 "http://www.w3.org/TR/2001/REC-SVG-20010904/DTD/svg10.dtd">
<svg version="1.0" xmlns="http://www.w3.org/2000/svg"
 width="1294.000000pt" height="914.000000pt" viewBox="0 0 1294.000000 914.000000"
 preserveAspectRatio="xMidYMid meet">
<metadata>
Created by potrace 1.16, written by Peter Selinger 2001-2019
</metadata>
<g transform="translate(0.000000,914.000000) scale(0.100000,-0.100000)"
fill="#000000" stroke="none">
<path d="M2504 6096 c-21 -10 -42 -33 -67 -77 -38 -69 -85 -118 -158 -167 -26
-17 -50 -39 -55 -49 -4 -10 -8 -65 -9 -123 -1 -85 -5 -114 -22 -152 -31 -69
-65 -108 -131 -157 -96 -69 -103 -98 -53 -223 43 -106 43 -185 1 -268 -35 -70
-38 -107 -9 -144 28 -36 69 -55 132 -64 l53 -7 -18 -125 c-25 -171 -15 -224
45 -260 38 -24 111 -25 237 -6 47 7 88 11 93 9 14 -8 7 -52 -14 -88 -15 -25
-20 -47 -17 -78 3 -28 -2 -54 -14 -78 -13 -26 -18 -55 -17 -100 1 -35 -2 -86
-6 -114 -9 -69 39 -224 144 -463 45 -100 84 -195 87 -210 3 -15 23 -61 43
-102 36 -75 36 -75 36 -207 l-1 -131 31 -18 c24 -15 57 -19 162 -22 73 -3 144
-1 158 2 44 11 65 60 65 151 0 44 7 109 15 144 9 35 15 96 14 135 -1 80 16
208 31 236 6 10 10 39 10 63 0 25 6 62 14 84 11 31 12 51 4 89 -8 35 -7 66 1
110 16 87 14 179 -6 241 -14 44 -15 62 -6 95 8 29 8 48 1 64 -8 16 -7 36 1 68
14 57 14 111 0 138 -8 16 -8 31 1 59 15 44 45 59 119 59 25 0 57 7 71 15 14 8
32 17 40 21 8 4 26 16 39 26 19 14 20 18 7 18 -34 0 -75 30 -87 65 -11 31 -17
35 -49 36 -20 1 -6 5 35 10 107 13 145 32 214 104 66 71 95 81 131 45 25 -25
25 -37 0 -78 -11 -18 -20 -34 -20 -35 0 -2 21 0 48 3 l47 5 61 300 c33 166 59
306 56 313 -3 9 -67 12 -253 12 -249 0 -249 0 -259 -22 -5 -13 -34 -151 -65
-308 -65 -332 -62 -320 -80 -320 -21 0 -27 47 -26 191 1 94 -3 154 -14 195 -8
32 -18 97 -22 144 -10 137 -24 154 -175 201 l-97 30 -38 63 c-38 64 -39 64
-66 50 -20 -11 -27 -22 -27 -46 0 -16 36 -112 80 -211 77 -173 80 -184 73
-230 l-8 -49 -70 88 c-38 48 -78 98 -89 111 -15 20 -16 28 -6 52 17 42 1 87
-64 180 -69 97 -110 184 -102 214 3 13 37 43 86 76 67 45 82 59 91 92 11 35
16 39 44 39 49 0 79 29 77 74 -1 20 -6 45 -12 55 -15 29 -87 84 -164 127 -66
36 -75 38 -170 41 -68 1 -111 -2 -132 -11z m-2 -1491 c7 -22 13 -44 13 -50 1
-5 5 -21 9 -34 6 -16 4 -26 -5 -32 -19 -12 -100 -11 -119 1 -8 5 -10 10 -5 10
6 0 11 17 11 38 0 20 6 53 14 72 7 19 17 46 22 60 l10 24 19 -24 c10 -14 24
-43 31 -65z m477 29 c63 -13 28 -44 -50 -44 -46 0 -70 -24 -40 -39 27 -15 67
-14 125 4 77 23 146 18 146 -11 0 -17 -39 -44 -65 -44 -28 0 -90 -32 -91 -47
-1 -7 -2 -19 -3 -27 0 -8 -13 -28 -27 -45 -23 -28 -31 -31 -85 -31 l-59 0 -36
55 c-76 114 -48 202 71 228 32 7 80 8 114 1z"/>
<path d="M1924 1905 c-21 -21 -24 -31 -19 -58 4 -18 16 -39 28 -48 21 -17 21
-17 -6 -12 -29 6 -35 -9 -18 -36 6 -9 6 -22 0 -33 -14 -26 0 -68 27 -80 20 -9
24 -19 24 -53 l0 -42 -50 -7 c-97 -13 -56 -36 64 -36 109 0 146 24 56 36 l-50
7 0 42 c0 34 5 46 24 59 22 14 25 22 24 89 0 78 -4 90 -28 100 -10 4 -8 6 8 6
15 1 22 7 22 21 0 23 -3 24 -33 10 -22 -10 -22 -10 1 6 28 21 28 28 -3 42 -36
17 -43 15 -71 -13z"/>
<path d="M2764 1830 c-60 -24 -86 -108 -55 -173 11 -25 26 -92 35 -163 8 -66
18 -128 22 -137 6 -17 41 -33 51 -23 3 3 0 39 -6 81 -13 90 -14 165 -3 165 19
0 32 -84 32 -204 0 -105 2 -126 15 -126 12 0 15 15 16 73 l0 72 32 -125 c30
-118 34 -125 67 -145 41 -24 157 -28 182 -7 24 20 40 129 24 165 -6 12 -4 17
8 17 9 0 16 8 16 17 0 9 7 24 16 34 13 15 14 21 0 52 -12 30 -93 104 -102 94
-2 -2 1 -32 8 -67 12 -72 6 -82 -66 -101 -55 -15 -100 -4 -129 31 -31 36 -67
182 -67 270 0 49 -3 61 -14 57 -21 -8 -46 51 -46 107 0 48 -2 50 -36 36z"/>
<path d="M10195 1746 c-41 -18 -83 -69 -90 -109 -4 -19 0 -52 10 -80 9 -26 13
-52 10 -57 -3 -5 17 -21 45 -35 27 -14 50 -27 50 -30 0 -2 -24 4 -54 15 l-55
18 -6 -28 c-4 -16 0 -43 9 -65 14 -33 14 -42 0 -85 -12 -38 -13 -56 -5 -88 12
-41 69 -102 96 -102 16 0 17 -8 17 -100 0 -106 7 -97 -78 -105 -83 -8 -146
-25 -151 -42 -6 -17 52 -33 161 -44 149 -17 374 11 363 45 -6 18 -65 34 -154
41 l-83 7 0 97 0 96 40 17 c31 13 45 27 60 60 24 52 25 77 5 125 -14 33 -14
40 2 81 16 42 16 47 -2 98 -15 43 -24 56 -44 60 -47 10 -47 12 1 13 45 1 47 2
53 35 4 19 4 44 0 55 -6 20 -7 20 -66 -9 -32 -17 -59 -28 -59 -26 0 2 25 22
55 43 l55 39 -28 27 c-48 46 -101 57 -157 33z"/>
</g>
</svg>
