<?xml version="1.0" standalone="no"?>
<!DOCTYPE svg PUBLIC "-//W3C//DTD SVG 20010904//EN"
 "http://www.w3.org/TR/2001/REC-SVG-20010904/DTD/svg10.dtd">
<svg version="1.0" xmlns="http://www.w3.org/2000/svg"
 width="512.000000pt" height="511.000000pt" viewBox="0 0 512.000000 511.000000"
 preserveAspectRatio="xMidYMid meet">
<metadata>
Created by potrace 1.16, written by Peter Selinger 2001-2019
</metadata>
<g transform="translate(0.000000,511.000000) scale(0.100000,-0.100000)"
fill="#000000" stroke="none">
<path d="M0 2555 l0 -2555 2560 0 2560 0 0 2555 0 2555 -2560 0 -2560 0 0
-2555z m3840 2396 c-5 -18 -17 -39 -27 -47 -10 -7 -13 -14 -6 -14 15 0 55 55
46 64 -4 4 0 4 10 0 9 -3 17 -9 17 -13 0 -16 135 -229 224 -355 l97 -136 -30
-98 c-36 -117 -66 -233 -90 -352 -14 -68 -64 -195 -222 -563 -112 -262 -206
-471 -210 -464 -3 7 -16 57 -30 112 -13 55 -27 102 -31 103 -5 2 -8 17 -8 32
0 16 -4 32 -10 35 -5 3 -10 15 -10 26 0 13 -4 18 -12 13 -8 -5 -9 -2 -5 9 3
10 2 17 -3 17 -5 0 -7 7 -4 15 4 9 -1 18 -11 21 -9 4 -14 13 -11 21 4 9 2 11
-6 7 -8 -5 -9 -2 -5 10 4 9 3 15 -1 13 -4 -3 -15 11 -25 30 -9 19 -13 32 -7
28 6 -4 6 4 -1 19 -7 14 -16 23 -22 19 -6 -3 -7 -2 -4 4 7 11 -39 83 -53 83
-5 0 -7 6 -4 13 2 7 -3 21 -11 32 -16 19 -16 19 -5 -2 17 -36 4 -27 -20 14
-17 29 -18 34 -4 22 10 -8 -7 19 -37 60 -31 41 -62 76 -70 78 -8 2 -4 -4 9
-13 12 -9 22 -21 22 -26 0 -15 -25 8 -71 66 -27 33 -30 39 -9 18 17 -19 34
-32 36 -29 6 6 -156 157 -168 157 -5 0 -6 -5 -2 -11 5 -8 1 -8 -14 0 -12 6
-24 16 -27 21 -4 6 -11 8 -16 4 -6 -3 -13 4 -16 16 -4 17 -8 19 -15 8 -7 -9
-8 -7 -5 8 4 19 1 21 -22 17 -14 -2 -34 -4 -43 -4 -72 1 -108 5 -108 12 0 5 7
6 15 3 8 -4 15 -1 15 4 0 6 10 14 23 18 12 5 24 9 27 10 3 1 15 5 27 9 13 4
21 11 18 15 -3 5 5 6 17 4 13 -2 17 -1 10 2 -9 4 -4 12 18 26 40 24 52 15 16
-13 -14 -11 -24 -24 -22 -27 2 -4 -9 -7 -26 -8 -16 -1 -34 -6 -39 -11 -7 -7 4
-9 35 -6 35 4 46 2 46 -8 1 -8 8 0 17 16 10 17 16 36 14 44 -1 8 2 10 10 5 7
-4 17 -1 23 7 6 8 37 33 68 57 64 49 101 89 48 51 -19 -13 -37 -26 -40 -29 -3
-3 -17 -11 -32 -19 -16 -8 -26 -16 -24 -19 2 -2 -5 -13 -16 -24 -21 -21 -32
-20 -23 3 5 13 32 32 165 118 20 14 23 14 15 1 -11 -19 30 14 68 55 16 16 25
23 21 15 -4 -8 6 -3 22 12 82 76 144 130 144 126 0 -9 102 95 159 161 53 60
126 158 176 233 13 20 28 39 34 42 5 3 8 18 6 34 -3 32 4 47 16 35 5 -5 5 -23
-1 -42z m-2307 11 c4 8 6 7 6 -4 1 -10 6 -18 12 -18 5 0 7 -5 4 -10 -4 -6 5
-23 19 -37 15 -14 57 -69 95 -122 108 -149 418 -451 465 -451 7 0 20 -8 27
-17 13 -16 12 -17 -3 -4 -10 7 -18 11 -18 9 0 -5 111 -94 144 -116 21 -14 -34
38 -76 71 -35 28 0 8 70 -39 54 -37 60 -44 45 -53 -16 -9 -16 -10 5 -11 13 0
20 -4 17 -10 -3 -5 1 -10 9 -10 19 0 20 11 4 29 -7 7 12 -2 42 -20 30 -18 72
-41 93 -51 21 -10 35 -23 32 -28 -4 -6 -4 -10 -1 -10 2 0 12 -3 22 -7 13 -5
15 -3 9 7 -5 9 -4 11 4 6 24 -15 -1 -25 -52 -21 -38 4 -45 2 -27 -4 23 -8 23
-9 3 -10 -12 -1 -29 -4 -39 -8 -12 -4 -15 -3 -10 5 4 7 1 12 -6 13 -7 0 -4 4
7 9 18 8 18 9 2 9 -10 1 -20 -6 -23 -14 -4 -10 -13 -13 -25 -10 -11 4 -19 3
-19 -2 0 -5 -22 -25 -49 -46 -27 -20 -56 -49 -63 -64 -8 -15 -21 -27 -30 -27
-8 1 -15 -5 -14 -14 0 -8 -6 -17 -14 -19 -13 -4 -13 -3 0 7 13 10 13 11 0 7
-8 -2 -15 -11 -15 -19 0 -19 -24 -48 -38 -48 -6 0 -2 6 9 14 10 8 16 17 13 20
-3 3 -16 -6 -30 -21 -13 -14 -18 -23 -10 -18 9 5 12 3 9 -6 -3 -8 -10 -13 -16
-12 -6 2 -9 -3 -6 -11 3 -7 -3 -19 -13 -27 -17 -13 -17 -13 -3 5 13 18 13 19
0 11 -16 -9 -34 -32 -64 -79 -17 -29 -17 -30 0 -16 12 10 10 5 -6 -17 -27 -37
-32 -40 -24 -15 3 11 1 9 -8 -5 -7 -12 -25 -31 -39 -42 -26 -20 -54 -95 -42
-114 4 -6 1 -7 -7 -2 -10 6 -12 4 -7 -8 3 -9 0 -18 -9 -21 -8 -3 -14 -17 -14
-31 0 -15 -4 -24 -9 -21 -4 3 -13 -6 -20 -20 -6 -14 -7 -23 -1 -19 6 3 7 -1 4
-9 -3 -9 -11 -13 -17 -9 -6 4 -8 0 -4 -10 3 -9 1 -17 -4 -19 -5 -2 -11 -13
-12 -26 0 -12 -5 -22 -10 -22 -5 0 -6 -7 -3 -16 4 -10 2 -13 -6 -8 -8 5 -9 2
-5 -9 3 -10 3 -17 -2 -17 -5 0 -8 -12 -8 -26 0 -15 -5 -29 -10 -33 -6 -3 -19
-48 -29 -98 -10 -51 -21 -89 -25 -85 -11 12 -439 1018 -439 1032 0 24 -60 258
-90 353 l-31 97 64 87 c84 114 205 301 247 381 29 55 35 62 46 47 9 -12 13
-13 17 -3z m1362 -1258 c17 -13 50 -45 72 -71 22 -27 77 -88 123 -138 105
-114 323 -375 318 -380 -7 -8 -182 40 -268 72 -18 7 -29 9 -52 11 -22 2 -24
22 -3 22 8 0 15 -5 15 -11 0 -6 6 -9 14 -6 7 3 19 0 25 -6 6 -6 12 -9 14 -6 2
2 -30 36 -71 74 -51 48 -73 63 -68 48 4 -14 3 -23 -3 -23 -11 0 -25 36 -17 48
2 4 -9 23 -25 42 -28 34 -29 34 -23 9 3 -16 1 -30 -6 -34 -8 -5 -8 -10 0 -20
7 -8 13 -24 15 -37 1 -13 6 -31 10 -42 6 -14 5 -17 -6 -14 -8 3 -13 13 -13 22
1 9 -2 16 -6 16 -5 0 -10 12 -12 28 -3 23 -7 27 -37 27 -23 0 -37 6 -45 20 -6
10 -23 33 -38 50 -31 34 -33 41 -16 51 8 5 9 2 5 -10 -4 -10 -3 -15 3 -11 13
8 13 52 0 60 -5 3 -10 -1 -10 -9 0 -8 -4 -18 -10 -21 -6 -3 -7 1 -4 9 8 20 -6
20 -42 1 -35 -18 -58 -20 -48 -3 5 8 2 9 -12 2 -10 -5 -64 -10 -119 -11 -55
-1 -118 -3 -140 -6 -22 -2 -32 -2 -22 0 9 3 15 8 12 13 -6 11 51 34 64 25 6
-3 11 -1 11 6 0 15 -55 7 -135 -21 -54 -18 -44 -20 25 -5 25 6 25 5 2 -5 -13
-5 -21 -14 -18 -18 3 -5 -18 -5 -47 0 -31 4 -62 4 -77 -1 -14 -6 -34 -12 -45
-14 -11 -3 0 -6 25 -7 25 -1 39 -4 32 -7 -8 -3 -48 -2 -90 3 -75 8 -76 8 -32
15 38 5 32 6 -36 7 -73 2 -84 5 -108 28 -43 44 -35 54 47 56 l72 2 -65 3 c-72
4 -90 14 -70 38 10 12 36 15 128 15 l115 0 90 46 c105 53 170 68 367 84 80 6
147 14 150 16 9 9 53 -7 85 -32z m329 -61 c3 -8 1 -11 -4 -8 -6 3 -7 -1 -4 -9
3 -9 9 -16 13 -16 3 0 17 -18 31 -40 16 -26 27 -35 32 -27 5 8 8 5 9 -8 1 -11
1 -23 0 -27 0 -4 15 -23 33 -43 19 -20 35 -38 35 -41 -1 -19 8 -25 14 -10 5
11 3 15 -5 10 -7 -4 -8 -3 -4 4 4 7 1 26 -7 44 -8 18 -19 45 -25 61 -7 15 -18
27 -26 27 -7 0 -16 6 -19 14 -11 28 34 4 50 -28 18 -32 20 -37 22 -58 0 -6 4
-8 8 -5 3 4 14 -5 23 -21 15 -25 15 -28 1 -40 -12 -10 -13 -15 -3 -18 18 -8
15 -27 -4 -20 -14 5 -15 4 -4 -9 7 -8 17 -12 23 -8 7 4 8 0 3 -12 -5 -15 -4
-16 9 -5 17 14 21 35 5 25 -5 -3 -10 -1 -10 4 0 25 22 8 37 -26 12 -30 13 -44
5 -67 -11 -27 -10 -28 7 -12 16 15 19 15 24 2 4 -9 1 -18 -5 -22 -7 -4 -8 -3
-4 4 11 18 0 14 -15 -5 -10 -11 -10 -14 -1 -9 8 5 12 0 12 -13 0 -12 5 -21 11
-21 5 0 7 -5 4 -10 -3 -6 5 -14 19 -19 19 -8 23 -15 19 -32 -4 -15 -2 -20 5
-15 7 4 10 -1 7 -14 -2 -11 1 -20 6 -20 6 0 7 -4 4 -10 -3 -5 -2 -10 4 -10 6
0 7 -7 4 -17 -4 -11 -3 -14 5 -9 8 5 12 0 12 -14 0 -11 5 -28 10 -38 6 -9 21
-48 34 -86 20 -58 25 -66 34 -50 5 10 46 100 90 199 123 277 207 447 215 438
5 -4 5 0 2 8 -3 9 0 21 7 27 11 9 13 4 10 -24 -3 -25 -8 -34 -18 -30 -15 6
-16 1 -5 -29 6 -14 3 -24 -8 -32 -13 -10 -14 -15 -3 -32 10 -17 10 -21 0 -21
-9 0 -12 -16 -11 -52 1 -41 0 -46 -6 -23 l-7 30 -5 -33 c-3 -18 -2 -35 3 -38
4 -3 8 -10 8 -15 0 -6 -4 -8 -9 -5 -10 6 -15 -14 -26 -94 -4 -25 -9 -54 -11
-65 -5 -17 -3 -18 6 -5 9 12 10 9 5 -15 -4 -16 -11 -33 -17 -36 -6 -4 -8 -18
-4 -33 4 -16 2 -26 -4 -26 -6 0 -8 -4 -5 -10 3 -5 -1 -38 -9 -72 -9 -35 -27
-121 -42 -193 -15 -71 -39 -170 -55 -218 -16 -49 -29 -97 -29 -108 0 -10 -6
-24 -13 -31 -8 -6 -12 -23 -10 -37 l4 -26 -13 23 c-8 12 -17 20 -21 17 -4 -3
-5 -2 -3 1 2 3 -4 31 -15 61 -10 31 -30 146 -44 258 -35 276 -67 387 -130 445
-15 14 -67 77 -115 140 -49 63 -122 155 -163 204 l-74 89 12 51 c7 28 16 63
19 77 4 20 12 27 30 27 14 0 27 -7 30 -15z m-1831 -71 c7 -29 16 -49 20 -46 4
4 7 2 7 -3 0 -6 -6 -14 -12 -16 -9 -4 -7 -6 3 -6 15 -1 47 -57 52 -91 2 -8 11
-31 21 -50 60 -114 121 -242 176 -368 35 -78 66 -140 69 -137 6 7 50 122 56
149 9 41 28 91 37 101 6 6 7 3 3 -10 -4 -11 2 -5 14 13 17 26 19 37 10 53 -8
16 -7 25 5 38 9 10 16 22 16 28 0 26 41 104 51 98 7 -5 4 -13 -7 -26 -9 -11
-15 -22 -12 -25 3 -3 11 1 17 8 20 24 71 91 71 93 0 10 -35 -4 -39 -16 -8 -19
-28 -22 -28 -4 0 8 5 13 11 12 6 -1 10 6 10 16 -1 9 3 17 8 17 6 0 8 7 5 15
-4 8 -2 17 3 20 6 4 10 1 10 -5 0 -6 4 -9 9 -5 5 3 13 0 17 -6 4 -7 3 -9 -3
-6 -6 4 -13 1 -16 -7 -7 -17 21 -15 32 3 7 10 19 9 61 -3 30 -9 83 -16 120
-16 l66 0 31 -102 32 -102 -32 -36 c-18 -19 -55 -66 -82 -105 l-50 -70 -2
-110 c-1 -60 -6 -130 -12 -155 -15 -63 -13 -173 3 -252 20 -92 58 -167 112
-220 l46 -45 -143 -484 c-78 -266 -146 -485 -151 -487 -4 -2 -8 -13 -8 -24 0
-15 -4 -18 -22 -13 -19 6 -21 5 -10 -6 17 -18 15 -59 -3 -59 -8 0 -15 8 -15
18 0 14 2 15 10 2 11 -17 13 -10 4 14 -3 9 -11 13 -17 9 -6 -3 -7 -1 -3 5 4 7
4 18 -1 25 -12 18 -33 80 -33 97 0 8 7 2 15 -14 8 -15 15 -35 15 -44 0 -8 3
-13 6 -9 4 3 15 -4 25 -16 10 -12 18 -16 19 -9 0 6 -4 12 -10 12 -5 0 -10 10
-10 22 0 21 0 21 16 2 15 -19 16 -19 9 1 -30 87 -38 105 -46 105 -5 0 -8 3 -8
8 4 23 -2 42 -12 36 -8 -4 -9 0 -4 15 6 20 -8 28 -40 21 -5 -1 -7 1 -3 5 4 4
1 14 -7 22 -8 8 -15 22 -16 31 0 9 -3 26 -5 37 -3 11 -6 27 -6 35 0 8 -4 20
-8 25 -4 6 -10 24 -14 40 l-6 30 15 -25 c9 -16 14 -19 15 -10 0 9 -8 27 -17
40 -10 14 -16 33 -15 44 2 10 0 16 -6 13 -5 -4 -9 -1 -9 6 0 7 -16 62 -36 122
-69 215 -247 943 -247 1012 0 13 -5 23 -11 23 -7 0 -9 10 -5 25 4 16 2 25 -5
25 -7 0 -9 9 -5 26 9 36 -4 100 -16 82 -7 -9 -8 -4 -3 15 4 19 2 26 -5 22 -5
-3 -10 -1 -10 4 0 6 5 11 11 11 14 0 1 78 -17 105 -8 11 -14 29 -13 40 1 17 2
16 10 -5 8 -23 8 -23 4 5 -19 125 -28 171 -37 180 -7 7 -8 2 -3 -14 5 -16 4
-21 -4 -17 -6 4 -11 18 -11 32 0 14 4 23 9 20 5 -4 7 3 4 14 -3 11 -9 17 -14
14 -8 -5 -10 10 -13 81 -1 11 -5 26 -9 33 -5 6 -5 17 -2 22 3 6 2 10 -2 10 -5
0 -9 9 -9 20 0 32 14 9 29 -48z m1283 -263 c38 -12 124 -43 190 -70 67 -27
171 -61 230 -75 286 -69 364 -95 399 -134 26 -28 51 -147 80 -374 15 -117 50
-313 85 -471 63 -289 91 -438 114 -605 8 -58 22 -121 30 -141 13 -31 13 -39 1
-63 -10 -19 -12 -34 -5 -52 14 -35 13 -38 -7 -18 -16 16 -18 15 -38 -11 -11
-16 -34 -47 -51 -70 -23 -31 -29 -46 -22 -58 7 -13 5 -17 -7 -17 -10 0 -13 5
-9 13 4 6 -5 1 -20 -13 -14 -13 -24 -30 -21 -38 3 -8 0 -12 -7 -9 -7 2 -29 -8
-48 -23 -19 -15 -48 -32 -65 -38 l-30 -10 27 -1 c34 -1 59 9 52 20 -3 5 5 8
18 6 16 -1 23 3 23 15 0 9 4 20 9 25 5 4 6 -9 2 -32 -7 -37 -6 -39 8 -20 8 11
16 27 16 36 0 9 10 20 22 26 15 6 18 12 10 17 -7 4 -12 2 -12 -4 0 -6 -4 -8
-10 -5 -6 4 -5 11 2 19 19 20 52 -15 43 -46 -7 -22 -7 -22 8 -3 11 14 12 24 5
32 -6 7 -7 20 -4 29 4 9 2 22 -4 29 -8 9 -8 15 0 20 6 4 9 1 8 -7 -2 -7 3 -12
11 -10 9 2 11 -3 7 -13 -3 -8 -9 -23 -12 -32 -5 -15 -4 -16 5 -3 23 30 7 -23
-16 -57 -13 -17 -23 -36 -23 -40 0 -5 -7 -18 -16 -29 -15 -19 -15 -19 -5 2 10
21 -2 54 -16 41 -4 -5 -2 -11 4 -15 7 -5 9 -13 3 -21 -4 -8 -6 -21 -2 -29 3
-10 0 -13 -9 -10 -8 3 -13 15 -12 27 2 13 -1 20 -7 16 -6 -4 -9 -25 -6 -46 4
-33 2 -38 -9 -29 -8 7 -20 10 -27 7 -8 -4 -7 -6 5 -6 23 -1 22 -16 -4 -58 -15
-25 -25 -31 -32 -24 -6 6 -15 11 -20 11 -5 0 -1 -7 7 -16 15 -14 14 -18 -6
-44 -13 -16 -29 -29 -37 -29 -9 -1 -4 10 14 29 16 16 25 33 22 37 -8 7 -47
-31 -47 -45 0 -19 -26 -32 -38 -20 -9 9 -16 7 -28 -8 -15 -18 -15 -18 -10 0 5
13 2 17 -8 13 -7 -3 -28 10 -47 29 -28 29 -31 37 -19 45 12 8 10 9 -6 4 -16
-4 -26 1 -39 21 -11 18 -13 24 -4 19 12 -7 12 -5 1 6 -7 8 -18 14 -25 14 -7 1
-11 7 -9 14 1 7 -2 10 -7 6 -10 -5 -26 10 -112 111 -75 87 -79 93 -72 111 5
12 2 15 -10 10 -12 -4 -28 10 -61 55 -37 53 -42 64 -30 76 23 22 16 37 -7 16
-22 -19 -22 -19 -10 4 12 22 4 29 -15 15 -5 -5 -5 -3 1 4 5 7 25 13 43 15 34
2 38 8 22 39 -6 11 -8 25 -4 31 11 17 34 -21 34 -55 0 -21 4 -28 14 -24 10 4
16 -6 22 -31 4 -20 6 -41 5 -45 -1 -5 8 -11 19 -14 11 -3 20 -12 20 -19 0 -8
6 -14 14 -14 8 0 13 -8 12 -18 0 -10 5 -16 13 -14 9 2 11 -3 7 -14 -3 -9 -1
-23 6 -31 19 -23 -23 -13 -44 11 -14 14 -15 22 -7 33 12 14 -4 43 -24 43 -7 0
-7 -4 1 -12 7 -7 12 -18 12 -26 0 -12 -3 -12 -15 -2 -18 15 -20 -1 -3 -18 10
-10 10 -15 -1 -21 -8 -5 -9 -11 -3 -15 6 -3 12 0 15 6 2 7 8 9 13 5 5 -4 2
-12 -6 -17 -8 -5 -11 -12 -7 -17 5 -4 13 -1 18 7 8 11 12 12 16 2 2 -6 9 -10
14 -6 5 3 9 0 9 -7 0 -8 4 -8 15 1 9 8 13 21 9 33 -4 14 -2 18 7 15 8 -3 14
-11 15 -19 0 -8 5 -23 9 -33 8 -18 9 -18 15 -2 5 16 9 16 37 -8 17 -14 36 -26
43 -26 9 0 9 -4 -1 -18 -13 -15 -12 -16 3 -4 9 8 22 11 28 7 8 -5 6 -11 -5
-19 -12 -9 -3 -11 47 -13 35 0 56 1 48 4 -55 19 -139 61 -160 80 -14 13 -31
21 -37 18 -7 -2 -13 0 -13 6 0 17 -103 134 -117 133 -11 -2 -11 1 -2 12 7 9 8
14 1 14 -6 0 -14 10 -17 23 -15 50 -49 127 -57 127 -5 0 -6 5 -3 10 9 14 -4
52 -16 45 -5 -4 -9 -21 -9 -39 0 -31 -3 -34 -36 -41 -36 -6 -36 -7 -15 -22 12
-8 29 -12 37 -9 10 4 14 1 11 -6 -2 -7 -13 -11 -23 -10 -10 2 -32 5 -48 6 -30
3 -58 39 -49 63 3 7 0 13 -5 13 -9 0 -19 19 -28 55 -2 6 -11 39 -21 74 -14 50
-15 65 -5 68 6 3 12 14 11 26 0 21 -1 21 -8 3 -7 -19 -8 -19 -15 0 -4 10 -10
37 -12 59 -3 22 -7 56 -11 75 -3 19 -6 47 -6 62 0 15 -3 25 -7 23 -4 -2 -5 8
-1 23 5 25 6 25 9 5 2 -13 7 -23 12 -23 10 0 4 19 -17 60 -11 22 -13 23 -14 5
-1 -11 -5 0 -10 25 -5 25 -7 54 -5 64 3 11 1 25 -3 30 -13 17 -21 86 -10 86 9
0 12 -11 10 -45 0 -14 1 -16 6 -5 9 22 25 30 48 24 16 -4 17 -3 5 5 -8 6 -23
8 -34 5 -13 -4 -17 -2 -13 7 2 8 11 12 18 10 8 -2 21 -4 29 -5 8 0 17 -4 20
-7 3 -4 21 -10 40 -13 l35 -7 -50 33 c-54 36 -95 74 -89 81 3 3 -2 7 -11 11
-11 4 -14 2 -10 -7 4 -6 -1 -3 -10 8 -9 11 -19 19 -23 18 -4 -1 -6 5 -4 14 2
8 -1 12 -7 9 -5 -4 -34 16 -63 44 -40 38 -46 48 -26 39 15 -7 25 -16 22 -20
-8 -13 10 -11 25 3 11 11 12 10 6 -2 -8 -13 -7 -13 10 0 17 14 16 15 -19 21
-20 3 -40 10 -44 14 -4 4 4 5 18 2 14 -4 35 -7 48 -7 19 0 22 -4 17 -20 -4
-12 -2 -20 5 -20 6 0 9 -4 6 -9 -3 -5 -15 -7 -26 -4 -12 3 -20 0 -20 -6 0 -7
5 -9 10 -6 6 3 13 -1 17 -11 11 -29 32 24 23 57 -5 15 -5 31 -2 35 4 4 1 4 -7
-1 -10 -6 -12 -4 -7 4 4 6 16 9 26 6 10 -3 25 1 33 9 8 8 17 13 19 10 3 -2 25
5 49 15 28 13 34 18 17 15 -16 -4 -28 -2 -28 4 0 5 -29 13 -65 17 -36 3 -67
11 -70 16 -4 5 -14 9 -23 9 -12 -1 -10 -5 8 -15 14 -8 19 -14 12 -15 -7 0 -23
11 -35 24 -19 20 -24 21 -35 10 -9 -10 -9 -14 -1 -14 8 0 8 -4 -1 -15 -11 -13
-11 -18 0 -28 10 -9 11 -9 6 1 -8 13 -4 14 71 16 43 1 53 -2 53 -15 0 -21 -22
-30 -41 -17 -11 7 -9 8 6 3 13 -4 16 -3 10 3 -5 5 -28 12 -50 15 l-40 6 30
-14 c29 -14 28 -14 -32 -11 -47 3 -71 10 -104 32 -42 28 -51 45 -30 52 6 2 9
-3 5 -11 -7 -20 23 -30 34 -10 6 11 11 12 16 4 9 -14 26 -15 26 -1 0 6 -8 10
-17 10 -14 1 -13 4 6 14 21 12 21 14 6 20 -10 3 -20 4 -23 1 -3 -3 1 -5 8 -5
9 0 7 -5 -5 -14 -14 -10 -25 -11 -38 -4 -13 6 -23 6 -34 -3 -13 -11 -24 -3
-76 51 -33 36 -61 69 -61 74 -1 12 -44 18 -51 7 -7 -13 5 -42 16 -35 5 3 9 0
9 -5 0 -6 15 -28 34 -48 25 -29 33 -45 30 -68 -2 -24 -1 -27 7 -12 6 9 7 22 4
27 -10 17 3 11 30 -12 23 -20 36 -46 16 -34 -11 7 -23 -37 -16 -56 3 -8 1 -25
-5 -39 -10 -23 -10 -22 -5 6 5 28 4 29 -10 11 -18 -23 -19 -32 -5 -41 15 -9
12 -25 -5 -25 -9 0 -12 -6 -9 -15 4 -9 0 -15 -7 -15 -11 0 -12 -2 -1 -9 13 -8
7 -61 -7 -61 -17 0 -77 80 -69 93 1 1 -5 13 -12 27 -14 27 -22 102 -9 95 14
-9 17 10 3 23 -12 11 -14 10 -15 -5 -2 -19 -5 -42 -8 -58 -1 -5 -6 -2 -12 8
-5 9 -8 21 -4 26 3 5 0 13 -5 16 -7 4 -8 19 -4 38 4 18 8 43 9 57 1 14 3 35 3
48 1 12 6 22 10 22 4 0 5 -25 2 -56 -3 -30 -3 -57 2 -60 4 -3 8 9 8 27 0 18 3
29 7 26 3 -4 6 -21 6 -39 -1 -26 1 -29 7 -13 4 11 6 23 3 27 -2 4 14 6 37 4
39 -3 40 -3 27 17 -8 12 -20 23 -28 26 -12 4 -12 2 0 -13 8 -9 10 -20 6 -24
-4 -4 -10 -1 -12 6 -3 6 -9 10 -14 6 -12 -7 -7 39 6 48 6 5 5 8 -3 8 -7 0 -17
-10 -23 -22 -8 -20 -9 -19 -5 9 4 24 1 35 -12 42 -14 9 -15 12 -3 20 9 6 10
14 4 25 -7 13 -13 1 -26 -53 -10 -38 -14 -76 -11 -85 5 -12 2 -15 -10 -10 -12
5 -15 15 -10 48 22 162 71 267 133 281 55 12 281 -59 550 -171 96 -41 176 -72
178 -70 5 4 -230 129 -244 129 -7 0 -13 5 -13 10 0 6 -3 7 -7 4 -3 -4 -11 -3
-17 2 -15 12 -203 74 -309 102 -74 19 -97 21 -138 13 -27 -6 -49 -9 -49 -7 0
13 32 61 52 79 73 67 165 71 426 19 217 -43 288 -53 278 -37 -4 7 -15 12 -25
12 -24 0 -33 11 -21 25 8 9 4 14 -15 19 -14 4 -30 4 -35 1 -4 -3 -10 -1 -12 5
-1 5 -13 7 -25 4 -13 -4 -20 -10 -17 -15 3 -5 1 -9 -5 -9 -5 0 -13 5 -16 11
-4 6 -14 8 -22 4 -18 -6 -56 23 -47 36 3 5 -11 9 -30 9 -19 0 -38 5 -41 10 -3
6 -11 10 -16 10 -6 0 -7 -4 -4 -10 3 -5 2 -10 -4 -10 -5 0 -18 -3 -28 -6 -15
-5 -16 -4 -3 6 12 9 9 11 -18 6 -20 -4 -31 -2 -27 4 3 6 22 10 42 10 27 0 34
3 29 15 -3 8 0 15 6 15 6 0 8 3 4 7 -4 5 -14 -1 -22 -11 -12 -16 -26 -19 -104
-18 -56 0 -90 -4 -90 -10 0 -7 -5 -6 -14 1 -11 9 -20 10 -36 1 -11 -6 -30 -8
-41 -5 -18 6 -17 9 13 29 27 18 45 21 99 19 45 -2 72 2 85 12 18 14 17 14 -11
15 -24 0 -27 -2 -15 -11 11 -8 8 -9 -15 -4 -16 3 -42 9 -58 12 -16 3 -37 -1
-52 -11 -14 -9 -25 -14 -25 -11 0 3 -10 -3 -22 -15 -12 -11 -27 -20 -32 -20
-6 0 -3 -6 6 -13 15 -12 15 -14 -5 -27 -20 -12 -21 -12 -8 3 11 15 11 17 -1
17 -8 0 -30 -17 -49 -37 -18 -20 -26 -31 -16 -24 34 26 25 5 -18 -42 -25 -28
-46 -44 -50 -38 -3 6 0 11 7 11 10 0 10 3 -1 9 -23 14 21 89 106 180 70 76
193 183 223 194 31 12 90 6 156 -14z"/>
<path d="M2720 3549 c-36 -11 -83 -22 -105 -25 -22 -3 -42 -8 -45 -11 -3 -3
12 -3 32 0 24 4 39 1 42 -6 3 -8 9 -6 16 6 6 9 17 17 24 17 19 0 16 -30 -3
-31 -9 0 -3 -5 14 -11 21 -8 30 -8 33 1 2 6 9 8 14 5 7 -4 8 -2 4 5 -6 9 0 10
21 5 44 -11 17 9 -30 23 -25 6 -33 11 -20 12 12 1 34 -4 50 -10 15 -6 36 -12
47 -15 34 -6 56 -34 46 -57 -4 -12 -15 -21 -23 -19 -23 4 -28 -13 -11 -34 9
-10 12 -13 8 -5 -3 7 -1 17 7 21 15 10 29 4 29 -11 0 -6 -4 -8 -9 -5 -11 7 -7
-52 4 -62 5 -4 5 -1 1 6 -6 10 -1 12 22 9 25 -4 29 -2 25 11 -5 12 -2 14 11 9
14 -6 17 -3 12 9 -3 8 -6 22 -6 29 0 18 -120 155 -134 154 -6 -1 -40 -10 -76
-20z"/>
</g>
</svg>
