<?xml version="1.0" standalone="no"?>
<!DOCTYPE svg PUBLIC "-//W3C//DTD SVG 20010904//EN"
 "http://www.w3.org/TR/2001/REC-SVG-20010904/DTD/svg10.dtd">
<svg version="1.0" xmlns="http://www.w3.org/2000/svg"
 width="800.000000pt" height="800.000000pt" viewBox="0 0 800.000000 800.000000"
 preserveAspectRatio="xMidYMid meet">

<g transform="translate(0.000000,800.000000) scale(0.100000,-0.100000)"
fill="#000000" stroke="none">
<path d="M5178 6993 c7 -3 16 -2 19 1 4 3 -2 6 -13 5 -11 0 -14 -3 -6 -6z"/>
<path d="M5118 6983 c6 -2 18 -2 25 0 6 3 1 5 -13 5 -14 0 -19 -2 -12 -5z"/>
<path d="M5063 6973 c9 -2 23 -2 30 0 6 3 -1 5 -18 5 -16 0 -22 -2 -12 -5z"/>
<path d="M4685 6913 c-271 -48 -345 -66 -332 -79 3 -3 498 91 627 120 138 30
2 11 -295 -41z"/>
<path d="M5028 6833 c7 -3 16 -2 19 1 4 3 -2 6 -13 5 -11 0 -14 -3 -6 -6z"/>
<path d="M4968 6823 c6 -2 18 -2 25 0 6 3 1 5 -13 5 -14 0 -19 -2 -12 -5z"/>
<path d="M4918 6813 c6 -2 18 -2 25 0 6 3 1 5 -13 5 -14 0 -19 -2 -12 -5z"/>
<path d="M4610 6765 c-263 -47 -1365 -238 -1643 -285 -162 -28 -170 -30 -208
-64 -21 -20 -37 -36 -34 -36 2 0 269 52 592 115 323 64 804 158 1068 210 550
107 529 103 495 103 -14 0 -135 -19 -270 -43z"/>
<path d="M6551 6354 c0 -11 3 -14 6 -6 3 7 2 16 -1 19 -3 4 -6 -2 -5 -13z"/>
<path d="M6561 6314 c0 -11 3 -14 6 -6 3 7 2 16 -1 19 -3 4 -6 -2 -5 -13z"/>
<path d="M6570 6286 c0 -9 48 -204 56 -225 2 -8 7 -12 10 -9 2 3 -10 56 -27
119 -29 105 -39 134 -39 115z"/>
<path d="M3230 5806 c-134 -74 -224 -521 -190 -946 6 -85 15 -177 20 -204 7
-43 2 -67 -37 -190 -49 -153 -72 -204 -127 -280 -80 -112 -124 -93 -161 69
-20 84 -11 113 48 166 97 85 142 294 76 360 -79 79 -204 -78 -244 -306 -19
-110 -19 -165 0 -257 23 -106 69 -170 137 -189 117 -31 232 84 313 313 24 69
45 93 45 53 0 -26 62 -208 87 -259 53 -105 147 -170 218 -152 65 16 189 210
248 384 l25 73 21 -35 c36 -57 77 -86 123 -86 95 0 143 50 263 278 44 83 83
152 86 152 4 0 10 -19 13 -43 4 -23 17 -65 30 -93 41 -87 126 -108 180 -43 32
38 51 101 67 222 l12 95 89 67 c49 37 90 66 92 64 1 -2 10 -44 20 -93 21 -110
62 -237 90 -279 30 -45 86 -58 124 -30 32 24 36 45 51 318 12 207 30 385 40
385 3 0 23 -66 45 -147 45 -173 90 -289 117 -304 32 -17 80 -7 100 21 12 16
31 87 50 190 18 91 35 168 38 173 4 4 26 -41 49 -100 75 -195 131 -263 216
-263 63 0 94 26 152 127 l32 55 16 -54 c8 -30 31 -72 51 -96 96 -111 238 -58
333 126 46 88 141 369 145 426 1 28 -3 41 -16 50 -30 19 -51 -21 -111 -207
-74 -232 -151 -357 -218 -357 -33 0 -48 28 -73 133 -19 81 -9 118 44 164 129
110 151 383 31 383 -81 0 -156 -134 -235 -420 -45 -162 -94 -250 -140 -250
-44 0 -82 66 -160 275 -50 134 -60 152 -91 159 -71 18 -80 -2 -150 -328 -11
-50 -19 -74 -25 -65 -10 20 -65 234 -89 354 -22 107 -43 148 -80 153 -89 14
-136 -111 -167 -450 -9 -104 -20 -182 -24 -175 -4 6 -17 66 -29 132 -28 162
-26 155 -64 155 -36 0 -61 -21 -71 -61 -4 -17 -31 -42 -83 -77 -42 -29 -82
-52 -88 -52 -6 0 -17 28 -23 63 -43 220 -141 297 -264 210 -83 -58 -110 -171
-67 -272 l21 -48 -69 -144 c-107 -226 -180 -341 -234 -370 -31 -17 -50 46 -56
192 -4 111 -2 135 18 200 24 82 60 158 96 206 80 106 -53 120 -151 16 -40 -43
-93 -160 -105 -233 -27 -154 -54 -272 -86 -368 -38 -115 -121 -285 -159 -327
-23 -24 -26 -25 -47 -11 -57 40 -108 158 -158 363 -21 86 -22 94 -7 135 8 24
29 82 47 131 40 113 103 361 131 524 30 170 33 386 6 455 -21 53 -77 108 -110
108 -12 -1 -33 -7 -47 -14z m79 -259 c1 -144 -33 -352 -103 -622 -24 -92 -36
-125 -41 -111 -10 24 1 416 15 526 23 181 51 293 87 350 l16 24 13 -34 c7 -19
13 -79 13 -133z m2642 -159 c-25 -56 -28 -21 -4 48 16 43 18 46 21 22 2 -15
-6 -46 -17 -70z m-1631 -178 c26 -37 62 -177 58 -227 -3 -35 -6 -38 -35 -41
-29 -3 -36 2 -54 33 -12 20 -32 41 -45 45 -46 18 -42 132 7 194 26 34 43 33
69 -4z m56 -410 c-4 -39 -13 -87 -21 -108 l-13 -37 -11 27 c-15 40 -34 156
-27 173 3 10 19 15 42 15 l37 0 -7 -70z m-1605 -252 c-25 -56 -28 -21 -4 48
16 43 18 46 21 22 2 -15 -6 -46 -17 -70z"/>
<path d="M2372 4784 c-12 -8 -22 -25 -22 -38 0 -12 17 -94 37 -182 33 -141 37
-174 37 -294 1 -107 -3 -143 -16 -173 -11 -23 -22 -36 -29 -32 -22 15 -112
163 -165 275 -30 63 -67 127 -81 142 -35 37 -75 37 -101 1 -38 -54 -52 -130
-76 -392 -9 -90 -18 -166 -20 -169 -3 -2 -10 8 -17 24 -24 64 -40 174 -48 348
-5 102 -15 194 -21 205 -22 43 -88 39 -110 -7 -19 -39 -25 -257 -10 -365 26
-191 103 -329 191 -343 48 -8 92 29 107 89 11 43 34 231 47 382 4 44 9 84 12
89 3 4 34 -50 68 -120 109 -224 205 -303 300 -244 68 42 90 136 82 350 -6 172
-39 355 -76 428 -24 46 -49 54 -89 26z"/>
<path d="M4292 3586 c-51 -13 -94 -25 -96 -27 -2 -2 28 -124 67 -271 l71 -267
34 -3 c24 -2 41 -11 55 -30 l20 -27 -28 -71 -28 -70 33 -127 c18 -71 62 -236
97 -368 35 -132 102 -384 149 -560 47 -176 89 -335 95 -353 28 -86 171 -77
203 13 5 13 -37 187 -115 483 l-123 463 -25 -7 c-14 -4 -43 -8 -65 -8 -67 -1
-96 63 -50 109 14 13 13 15 -9 15 -13 0 -33 10 -45 23 -29 31 -28 71 2 94 l23
18 -30 10 c-70 23 -72 99 -3 132 l35 16 -32 21 c-27 18 -32 28 -32 61 0 36 4
42 37 60 21 11 38 26 38 33 0 12 -135 533 -162 625 -6 20 -14 37 -17 36 -3 0
-48 -11 -99 -23z"/>
<path d="M4556 1973 c-12 -12 -6 -33 9 -33 8 0 15 6 15 14 0 17 -14 28 -24 19z"/>
<path d="M4040 1965 c0 -4 -38 -248 -86 -543 -47 -296 -100 -634 -119 -752
-19 -118 -50 -313 -70 -432 -19 -120 -35 -222 -35 -228 0 -6 110 -10 313 -10
l313 0 138 935 c76 515 136 938 133 941 -5 5 -87 19 -397 64 -80 12 -155 24
-167 27 -13 3 -23 2 -23 -2z"/>
<path d="M7657 490 c-16 -5 -34 -13 -40 -18 -7 -5 -36 -12 -65 -14 -30 -3 -60
-12 -68 -20 -13 -13 -12 -19 15 -47 29 -31 31 -32 60 -16 22 11 31 23 31 40 0
30 11 32 28 5 13 -22 43 -26 73 -10 14 8 19 21 19 50 0 42 -4 45 -53 30z m38
-20 c3 -6 3 -19 0 -31 -9 -26 -68 -24 -73 4 -5 25 59 49 73 27z m-121 -36 c10
-26 7 -34 -19 -46 -19 -8 -28 -8 -40 2 -22 18 -19 39 8 50 33 13 44 12 51 -6z"/>
<path d="M7770 360 c0 -22 1 -22 -81 -45 -47 -13 -59 -22 -75 -50 -10 -19 -22
-35 -27 -35 -4 0 -5 -5 -1 -11 4 -6 15 5 28 27 19 34 30 42 94 62 63 21 72 27
72 48 0 13 -2 24 -5 24 -3 0 -5 -9 -5 -20z"/>
<path d="M7533 273 c-13 -2 -23 -8 -23 -13 0 -6 11 -5 26 0 33 13 32 13 37 -7
4 -14 5 -12 6 5 1 22 -3 23 -46 15z"/>
</g>
</svg>
